<mxfile host="app.diagrams.net" modified="2024-07-31T05:32:30.490Z" agent="Mozilla/5.0 (Windows NT 10.0; Win64; x64) AppleWebKit/537.36 (KHTML, like Gecko) Chrome/127.0.0.0 Safari/537.36" version="24.6.4" etag="x_eJu0xTzqJpYknWGLH1" type="github">
  <diagram name="Page-1" id="9mziJBqMyGqKZW8hBYbc">
    <mxGraphModel>
      <root>
        <mxCell id="0" />
        <mxCell id="1" parent="0" />
      </root>
    </mxGraphModel>
  </diagram>
</mxfile>
